<svg width="386" height="84" viewBox="0 0 386 84" fill="none" xmlns="http://www.w3.org/2000/svg">
<path d="M35.7695 1.51758H47.5059C53.7909 1.51758 58.4137 1.51808 62.0654 1.81641C65.6995 2.11332 68.2383 2.6979 70.3799 3.78906C74.3008 5.78692 77.4885 8.97454 79.4863 12.8955C80.5775 15.037 81.1611 17.5759 81.458 21.21C81.7563 24.8617 81.7578 29.4845 81.7578 35.7695V47.5059C81.7578 53.7909 81.7563 58.4137 81.458 62.0654C81.1611 65.6995 80.5775 68.2383 79.4863 70.3799C77.4885 74.3008 74.3008 77.4885 70.3799 79.4863C68.2383 80.5775 65.6995 81.1621 62.0654 81.459C58.4137 81.7573 53.7909 81.7578 47.5059 81.7578H35.7695C29.4845 81.7578 24.8617 81.7573 21.21 81.459C17.5759 81.1621 15.037 80.5775 12.8955 79.4863C8.97451 77.4885 5.78593 74.3009 3.78809 70.3799C2.69702 68.2384 2.1133 65.6993 1.81641 62.0654C1.51808 58.4137 1.51758 53.7909 1.51758 47.5059V35.7695C1.51758 29.4845 1.51808 24.8617 1.81641 21.21C2.1133 17.5761 2.69703 15.037 3.78809 12.8955C5.78593 8.97451 8.97452 5.78692 12.8955 3.78906C15.037 2.6979 17.5759 2.11332 21.21 1.81641C24.8617 1.51808 29.4845 1.51758 35.7695 1.51758Z" fill="white" stroke="url(#paint0_linear_1055_6061)" stroke-width="3.03463"/>
<path d="M35.1547 59.567V34.0439C35.4763 30.2897 36.6957 27.5734 38.454 25.895C39.3538 25.0158 40.4939 24.3612 41.8744 23.9314C43.2549 24.3612 44.395 25.0158 45.2947 25.895C47.0549 27.5752 48.275 30.2955 48.595 34.0558V59.567V60.5263H60.1162V59.567H56.3358V23.3148H58.436C62.0364 23.3148 64.7166 24.1749 66.4768 25.895C68.237 27.5752 69.2771 30.2955 69.5971 34.0558H69.7771V22.3555H13.9727V34.0558H14.1527C14.4727 30.2955 15.5128 27.5752 17.273 25.895C19.0332 24.1749 21.7134 23.3148 25.3138 23.3148H27.414V59.567H23.5736V60.5263H35.1547V59.567Z" fill="#F45914"/>
<path d="M354.478 62.456H345.035L359.424 20.8184H370.78L385.148 62.456H375.705L365.265 30.3332H364.939L354.478 62.456ZM353.888 46.0897H376.194V52.9615H353.888V46.0897Z" fill="white"/>
<path d="M340.013 20.8184V62.456H332.401L314.268 36.2495H313.962V62.456H305.15V20.8184H312.884L330.875 47.0046H331.241V20.8184H340.013Z" fill="white"/>
<path d="M269.463 62.456H260.02L274.409 20.8184H285.765L300.133 62.456H290.69L280.25 30.3332H279.924L269.463 62.456ZM268.873 46.0897H291.179V52.9615H268.873V46.0897Z" fill="white"/>
<path d="M227.503 28.0765V20.8184H261.735V28.0765H248.974V62.456H240.263V28.0765H227.503Z" fill="white"/>
<path d="M221.809 20.8184V62.456H214.197L196.064 36.2495H195.758V62.456H186.946V20.8184H194.68L212.671 47.0046H213.037V20.8184H221.809Z" fill="white"/>
<path d="M151.259 62.456H141.816L156.205 20.8184H167.561L181.93 62.456H172.486L162.046 30.3332H161.72L151.259 62.456ZM150.669 46.0897H172.975V52.9615H150.669V46.0897Z" fill="white"/>
<path d="M109.299 28.0765V20.8184H143.531V28.0765H130.77V62.456H122.059V28.0765H109.299Z" fill="white"/>
<defs>
<linearGradient id="paint0_linear_1055_6061" x1="0" y1="0" x2="85.7904" y2="88.8643" gradientUnits="userSpaceOnUse">
<stop stop-color="white" stop-opacity="0.2"/>
<stop offset="1" stop-color="white" stop-opacity="0"/>
</linearGradient>
</defs>
</svg>
