<svg width="102" height="23" viewBox="0 0 102 23" fill="none" xmlns="http://www.w3.org/2000/svg">
<path d="M8.58852 22.0777C7.47313 22.0777 6.44281 21.9312 5.49757 21.6382C4.55232 21.3451 3.71578 20.9245 2.98794 20.3763C2.2601 19.828 1.65987 19.1711 1.18725 18.4054C0.714622 17.6303 0.397965 16.7607 0.237273 15.7965L3.32823 15.3286C3.64016 16.6236 4.2593 17.6067 5.18564 18.2778C6.12143 18.9489 7.31244 19.2845 8.75867 19.2845C9.42979 19.2845 10.0442 19.2042 10.6019 19.0435C11.1596 18.8828 11.6417 18.6559 12.0481 18.3629C12.4546 18.0699 12.7665 17.7201 12.9839 17.3137C13.2108 16.9072 13.3242 16.4629 13.3242 15.9809C13.3242 14.7237 12.4688 13.8446 10.7579 13.3436L5.52593 11.7982C2.5295 10.9002 1.03128 9.17982 1.03128 6.63711C1.03128 5.76748 1.20615 4.9782 1.55589 4.26927C1.91509 3.55088 2.41134 2.93647 3.04465 2.42604C3.68742 1.9156 4.45307 1.52333 5.3416 1.24921C6.23013 0.965631 7.20374 0.823844 8.26241 0.823844C9.32109 0.823844 10.2947 0.960905 11.1832 1.23503C12.0718 1.4997 12.8563 1.88725 13.5369 2.39768C14.2269 2.90811 14.8035 3.5367 15.2667 4.28345C15.7299 5.02074 16.0654 5.86201 16.2734 6.80725L13.0973 7.34604C12.9839 6.75999 12.7901 6.2401 12.516 5.78639C12.2419 5.32322 11.8969 4.93566 11.481 4.62373C11.0651 4.30235 10.583 4.05659 10.0347 3.88644C9.48651 3.7163 8.88628 3.63123 8.23406 3.63123C7.61019 3.63123 7.04777 3.70685 6.54679 3.85808C6.04581 3.99987 5.61572 4.19837 5.25653 4.45359C4.90679 4.70881 4.63739 5.01601 4.44834 5.37521C4.2593 5.72495 4.16477 6.10777 4.16477 6.52368C4.16477 6.84506 4.22149 7.13809 4.33492 7.40276C4.4578 7.66743 4.64685 7.90846 4.90206 8.12587C5.16673 8.34328 5.50229 8.54651 5.90875 8.73555C6.31521 8.91515 6.80201 9.0853 7.36916 9.24599L11.1123 10.3094C14.6476 11.3019 16.4152 13.1404 16.4152 15.8249C16.4152 16.7607 16.2261 17.6161 15.848 18.3912C15.4699 19.1569 14.9359 19.8138 14.2458 20.3621C13.5652 20.9009 12.7429 21.3215 11.7787 21.624C10.824 21.9265 9.76063 22.0777 8.58852 22.0777ZM27.9582 22.0777C26.4269 22.0777 25.061 21.8225 23.8605 21.3121C22.6695 20.7922 21.6581 20.0643 20.8263 19.1285C20.0039 18.1927 19.3753 17.0726 18.9405 15.7682C18.5152 14.4637 18.3025 13.0222 18.3025 11.4437C18.3025 9.86512 18.5152 8.42362 18.9405 7.11918C19.3753 5.81474 20.0039 4.69463 20.8263 3.75883C21.6581 2.82304 22.6695 2.09993 23.8605 1.58949C25.061 1.06961 26.4269 0.809666 27.9582 0.809666C29.4895 0.809666 30.8506 1.06961 32.0416 1.58949C33.2421 2.09993 34.2535 2.82304 35.0759 3.75883C35.8982 4.69463 36.5221 5.81474 36.9475 7.11918C37.3823 8.42362 37.5997 9.86512 37.5997 11.4437C37.5997 13.0222 37.3823 14.4637 36.9475 15.7682C36.5221 17.0726 35.8982 18.1927 35.0759 19.1285C34.2535 20.0643 33.2421 20.7922 32.0416 21.3121C30.8506 21.8225 29.4895 22.0777 27.9582 22.0777ZM27.9582 19.2561C29.0452 19.2561 29.9952 19.0718 30.8081 18.7032C31.621 18.3251 32.2968 17.7957 32.8356 17.1152C33.3744 16.4251 33.7762 15.6028 34.0408 14.6481C34.3149 13.6839 34.452 12.6158 34.452 11.4437C34.452 10.2716 34.3149 9.20818 34.0408 8.25348C33.7762 7.28933 33.3744 6.46696 32.8356 5.78639C32.2968 5.09636 31.621 4.56702 30.8081 4.19837C29.9952 3.82028 29.0452 3.63123 27.9582 3.63123C26.8711 3.63123 25.9212 3.82028 25.1082 4.19837C24.2953 4.56702 23.6195 5.09636 23.0807 5.78639C22.5419 6.46696 22.1355 7.28933 21.8613 8.25348C21.5872 9.20818 21.4501 10.2716 21.4501 11.4437C21.4501 12.6158 21.5825 13.6839 21.8472 14.6481C22.1213 15.6028 22.5277 16.4251 23.0665 17.1152C23.6148 17.7957 24.2953 18.3251 25.1082 18.7032C25.9212 19.0718 26.8711 19.2561 27.9582 19.2561ZM48.9493 22.0777C47.418 22.0777 46.0521 21.8225 44.8516 21.3121C43.6606 20.7922 42.6492 20.0643 41.8174 19.1285C40.995 18.1927 40.3664 17.0726 39.9316 15.7682C39.5063 14.4637 39.2936 13.0222 39.2936 11.4437C39.2936 9.86512 39.5063 8.42362 39.9316 7.11918C40.3664 5.81474 40.995 4.69463 41.8174 3.75883C42.6492 2.82304 43.6606 2.09993 44.8516 1.58949C46.0521 1.06961 47.418 0.809666 48.9493 0.809666C50.4806 0.809666 51.8417 1.06961 53.0327 1.58949C54.2332 2.09993 55.2446 2.82304 56.067 3.75883C56.8893 4.69463 57.5132 5.81474 57.9386 7.11918C58.3734 8.42362 58.5908 9.86512 58.5908 11.4437C58.5908 13.0222 58.3734 14.4637 57.9386 15.7682C57.5132 17.0726 56.8893 18.1927 56.067 19.1285C55.2446 20.0643 54.2332 20.7922 53.0327 21.3121C51.8417 21.8225 50.4806 22.0777 48.9493 22.0777ZM48.9493 19.2561C50.0363 19.2561 50.9863 19.0718 51.7992 18.7032C52.6121 18.3251 53.288 17.7957 53.8267 17.1152C54.3655 16.4251 54.7673 15.6028 55.0319 14.6481C55.3061 13.6839 55.4431 12.6158 55.4431 11.4437C55.4431 10.2716 55.3061 9.20818 55.0319 8.25348C54.7673 7.28933 54.3655 6.46696 53.8267 5.78639C53.288 5.09636 52.6121 4.56702 51.7992 4.19837C50.9863 3.82028 50.0363 3.63123 48.9493 3.63123C47.8622 3.63123 46.9123 3.82028 46.0994 4.19837C45.2864 4.56702 44.6106 5.09636 44.0718 5.78639C43.533 6.46696 43.1266 7.28933 42.8524 8.25348C42.5783 9.20818 42.4413 10.2716 42.4413 11.4437C42.4413 12.6158 42.5736 13.6839 42.8383 14.6481C43.1124 15.6028 43.5188 16.4251 44.0576 17.1152C44.6059 17.7957 45.2864 18.3251 46.0994 18.7032C46.9123 19.0718 47.8622 19.2561 48.9493 19.2561ZM61.419 21.6523V1.23503H64.4107L74.5059 16.5055V1.23503H77.4834V21.6523H74.5059L64.4107 6.38189V21.6523H61.419ZM81.9513 21.6523V18.5189H85.0848V21.6523H81.9513ZM90.0653 21.6523V18.5189H93.1988V21.6523H90.0653ZM98.1792 21.6523V18.5189H101.313V21.6523H98.1792Z" fill="white"/>
</svg>
