<svg width="21" height="20" viewBox="0 0 21 20" fill="none" xmlns="http://www.w3.org/2000/svg">
<path d="M18.3333 6.66669L15.3659 8.3152C13.7116 9.23429 12.8844 9.69384 12.0084 9.874C11.2331 10.0335 10.4334 10.0335 9.65812 9.874C8.78212 9.69384 7.95494 9.23429 6.30058 8.3152L3.33325 6.66669M5.99992 15.8334H15.6666C16.6 15.8334 17.0667 15.8334 17.4232 15.6517C17.7368 15.4919 17.9918 15.2369 18.1516 14.9233C18.3333 14.5668 18.3333 14.1001 18.3333 13.1667V6.83335C18.3333 5.89993 18.3333 5.43322 18.1516 5.0767C17.9918 4.7631 17.7368 4.50813 17.4232 4.34834C17.0667 4.16669 16.6 4.16669 15.6666 4.16669H5.99992C5.0665 4.16669 4.59979 4.16669 4.24327 4.34834C3.92966 4.50813 3.6747 4.7631 3.51491 5.0767C3.33325 5.43322 3.33325 5.89993 3.33325 6.83335V13.1667C3.33325 14.1001 3.33325 14.5668 3.51491 14.9233C3.6747 15.2369 3.92966 15.4919 4.24327 15.6517C4.59979 15.8334 5.0665 15.8334 5.99992 15.8334Z" stroke="#F75908" stroke-width="1.5" stroke-linecap="round" stroke-linejoin="round"/>
</svg>
