<svg width="21" height="20" viewBox="0 0 21 20" fill="none" xmlns="http://www.w3.org/2000/svg">
<path d="M4.9165 12.5C3.52798 13.0294 2.6665 13.7671 2.6665 14.5831C2.6665 16.1941 6.02437 17.5 10.1665 17.5C14.3086 17.5 17.6665 16.1941 17.6665 14.5831C17.6665 13.7671 16.805 13.0294 15.4165 12.5M10.1665 7.5H10.1748M15.1665 7.5C15.1665 10.8864 11.4165 12.5 10.1665 15C8.9165 12.5 5.1665 10.8864 5.1665 7.5C5.1665 4.73858 7.40508 2.5 10.1665 2.5C12.9279 2.5 15.1665 4.73858 15.1665 7.5ZM10.9998 7.5C10.9998 7.96024 10.6267 8.33333 10.1665 8.33333C9.70627 8.33333 9.33317 7.96024 9.33317 7.5C9.33317 7.03976 9.70627 6.66667 10.1665 6.66667C10.6267 6.66667 10.9998 7.03976 10.9998 7.5Z" stroke="#F75908" stroke-width="1.5" stroke-linecap="round" stroke-linejoin="round"/>
</svg>
