<svg width="20" height="20" viewBox="0 0 20 20" fill="none" xmlns="http://www.w3.org/2000/svg">
<path d="M11.7084 5.00002C12.5223 5.15882 13.2704 5.5569 13.8568 6.1433C14.4432 6.7297 14.8412 7.47774 15 8.29169M11.7084 1.66669C13.3994 1.85455 14.9764 2.61183 16.1802 3.81419C17.3841 5.01655 18.1434 6.59253 18.3334 8.28335M15.4167 17.5C8.28299 17.5 2.5 11.717 2.5 4.58335C2.5 4.2615 2.51177 3.9424 2.53491 3.62646C2.56146 3.26387 2.57474 3.08257 2.66975 2.91755C2.74845 2.78087 2.88792 2.65123 3.02998 2.58273C3.20151 2.50002 3.40157 2.50002 3.80168 2.50002H6.14943C6.4859 2.50002 6.65413 2.50002 6.79835 2.5554C6.92575 2.60431 7.03918 2.68376 7.12868 2.78677C7.23001 2.90338 7.2875 3.06149 7.40249 3.3777L8.37426 6.05006C8.50804 6.41796 8.57493 6.60191 8.56357 6.77644C8.55356 6.93033 8.50104 7.07842 8.41186 7.20424C8.31072 7.34692 8.14288 7.44763 7.80719 7.64904L6.66667 8.33335C7.66825 10.5407 9.45845 12.3333 11.6667 13.3334L12.351 12.1928C12.5524 11.8571 12.6531 11.6893 12.7958 11.5882C12.9216 11.499 13.0697 11.4465 13.2236 11.4364C13.3981 11.4251 13.5821 11.492 13.95 11.6258L16.6223 12.5975C16.9385 12.7125 17.0966 12.77 17.2133 12.8713C17.3163 12.9608 17.3957 13.0743 17.4446 13.2017C17.5 13.3459 17.5 13.5141 17.5 13.8506V16.1983C17.5 16.5985 17.5 16.7985 17.4173 16.97C17.3488 17.1121 17.2192 17.2516 17.0825 17.3303C16.9174 17.4253 16.7362 17.4386 16.3736 17.4651C16.0576 17.4882 15.7385 17.5 15.4167 17.5Z" stroke="#F75908" stroke-width="1.5" stroke-linecap="round" stroke-linejoin="round"/>
</svg>
