<svg width="24" height="24" viewBox="0 0 24 24" fill="none" xmlns="http://www.w3.org/2000/svg">
<path d="M19.7523 1.59961H4.24688C3.54478 1.59961 2.87144 1.87852 2.37498 2.37498C1.87852 2.87144 1.59961 3.54478 1.59961 4.24688V19.7523C1.59961 20.4544 1.87852 21.1278 2.37498 21.6242C2.87144 22.1207 3.54478 22.3996 4.24688 22.3996H11.8422V13.7451H10.1113V10.2833H11.8279V8.71888C11.8279 7.30297 12.5024 5.09089 15.4707 5.09089L18.1446 5.10162V8.06756H16.2028C15.887 8.06756 15.4378 8.22479 15.4378 8.89918V10.2836H18.1888L17.873 13.7453H15.304V22.3996H19.7523C20.4544 22.3996 21.1278 22.1207 21.6242 21.6242C22.1207 21.1278 22.3996 20.4544 22.3996 19.7523V4.24688C22.3996 3.54478 22.1207 2.87144 21.6242 2.37498C21.1278 1.87852 20.4544 1.59961 19.7523 1.59961Z" fill="white"/>
</svg>
